<svg xmlns="http://www.w3.org/2000/svg" xmlns:xlink="http://www.w3.org/1999/xlink" width="500" zoomAndPan="magnify" viewBox="0 0 375 374.999991" height="500" preserveAspectRatio="xMidYMid meet" version="1.0"><defs><g/><clipPath id="6d6d528120"><path d="M 90.007812 86.613281 L 285.007812 86.613281 L 285.007812 281.613281 L 90.007812 281.613281 Z M 90.007812 86.613281 " clip-rule="nonzero"/></clipPath></defs><g fill="#222222" fill-opacity="1"><g transform="translate(141.910586, 204.704312)"><g><path d="M 47.507812 -86.269531 L 44.082031 -86.269531 L 2.953125 0 L 7.445312 0 L 20.679688 -27.890625 L 71.023438 -27.890625 L 84.496094 0 L 89.105469 0 Z M 69.132812 -31.789062 L 22.691406 -31.789062 L 45.734375 -80.359375 Z M 69.132812 -31.789062 "/></g></g></g><g fill="#222222" fill-opacity="1"><g transform="translate(115.883326, 268.001951)"><g><path d="M 130.957031 -137.75 L 71.703125 -60.949219 L 12.265625 -137.75 L 3.960938 -137.75 L 68.308594 -54.910156 L 68.308594 0 L 74.914062 0 L 74.914062 -54.535156 L 139.257812 -137.75 Z M 130.957031 -137.75 "/></g></g></g><g clip-path="url(#6d6d528120)"><path fill="#000000" d="M 187.507812 281.613281 C 133.644531 281.613281 90.007812 237.679688 90.007812 184.113281 C 90.007812 130.546875 133.644531 86.613281 187.507812 86.613281 C 241.375 86.613281 285.007812 130.246094 285.007812 184.113281 C 285.007812 237.980469 241.074219 281.613281 187.507812 281.613281 Z M 187.507812 92.632812 C 136.953125 92.632812 96.027344 133.558594 96.027344 184.113281 C 96.027344 234.667969 136.953125 275.59375 187.507812 275.59375 C 238.066406 275.59375 278.992188 234.667969 278.992188 184.113281 C 278.992188 133.558594 237.765625 92.632812 187.507812 92.632812 Z M 187.507812 92.632812 " fill-opacity="1" fill-rule="nonzero"/></g></svg>